#!OML:ASF H:\IndianDance\Patient Classification 1\Patient 1\Session 1\dancer.ASF
:FULLY-SPECIFIED
:DEGREES
1984
root -6.48906 15.0595 -1.49002 -174.908 -22.8679 -181.69
lowerback 4.82486 4.94858 -1.44697
upperback -9.47592 6.19252 1.80993
thorax -13.3979 2.97505 1.821
lowerneck -11.8591 14.1744 11.8128
upperneck -3.14414 16.6122 1.90749
head 1.77367 7.96058 -0.345937
rclavicle 4.03533e-014 -1.19271e-014
rhumerus -19.5122 14.2583 -7.51999
rradius 28.7613
rwrist -5.13929
rhand -20.2963 19.1039
rfingers 7.12502
rthumb 6.05376 -10.7896
lclavicle 4.03533e-014 -1.19271e-014
lhumerus -0.180362 -9.73632 -3.7028
lradius 98.3265
lwrist -9.42223
lhand -52.9419 -20.0774
lfingers 7.12502
lthumb -25.4101 8.24913
rfemur -200.659 192.735 202.832
rtibia 47.8811
rfoot -27.6178 -384.08
rtoes 21.2489
lfemur -27.7143 6.18353 -11.9203
ltibia 23.5854
lfoot -38.0798 22.2126
ltoes 18.759
1985
root -6.52913 15.0618 -1.48092 -174.924 -22.7019 -181.963
lowerback 5.01777 4.92349 -1.40377
upperback -9.34188 6.15826 1.53232
thorax -13.3136 2.9458 1.48781
lowerneck -11.7791 13.9834 11.6234
upperneck -2.78308 16.3778 2.49255
head 1.79945 7.87911 -0.152892
rclavicle 5.76476e-015 -1.59028e-015
rhumerus -19.3953 14.2627 -8.1747
rradius 28.5141
rwrist -4.89509
rhand -19.9883 18.9017
rfingers 7.12502
rthumb 6.35114 -10.9831
lclavicle 5.76476e-015 -1.59028e-015
lhumerus -0.880622 -10.8603 -2.56325
lradius 94.9452
lwrist -10.7608
lhand -52.6901 -20.1907
lfingers 7.12502
lthumb -25.1689 8.16996
rfemur -200.403 192.091 202.547
rtibia 47.4727
rfoot -27.6962 -384.26
rtoes 21.6481
lfemur -28.1889 9.5539 -13.2647
ltibia 24.3372
lfoot -34.5182 22.0288
ltoes 12.7048
1986
root -6.56872 15.0591 -1.47096 -174.916 -22.5621 -182.228
lowerback 5.19332 4.87285 -1.35095
upperback -9.22286 6.08746 1.261
thorax -13.2354 2.89773 1.16448
lowerneck -11.7171 13.7901 11.4448
upperneck -2.3604 16.1333 3.05073
head 1.85546 7.79635 0.0345669
rclavicle -3.37934e-014 -1.66979e-014
rhumerus -19.2042 14.3322 -8.83449
rradius 28.2974
rwrist -4.71863
rhand -19.644 18.6863
rfingers 7.12502
rthumb 6.68346 -11.1882
lclavicle -3.37934e-014 -1.66979e-014
lhumerus -1.45684 -11.7688 -1.53156
lradius 91.356
lwrist -11.837
lhand -52.4245 -20.0184
lfingers 7.12502
lthumb -24.9143 8.37771
rfemur -200.12 191.524 202.126
rtibia 47.1781
rfoot -27.7186 -384.146
rtoes 21.4666
lfemur -28.8649 12.5946 -14.5311
ltibia 25.3548
lfoot -31.3455 21.6405
ltoes 6.39015
1987
root -6.60917 15.0508 -1.46063 -174.903 -22.4507 -182.454
lowerback 5.34602 4.81185 -1.25733
upperback -9.11085 6.00569 0.998213
thorax -13.1484 2.84054 0.832536
lowerneck -11.7335 13.5846 11.3003
upperneck -1.85191 15.8513 3.5584
head 1.96426 7.6995 0.209716
rclavicle 7.73272e-014 7.95139e-016
rhumerus -18.9808 14.4349 -9.47931
rradius 28.1094
rwrist -4.60354
rhand -19.2534 18.4578
rfingers 7.12502
rthumb 7.06057 -11.4044
lclavicle 7.73272e-014 7.95139e-016
lhumerus -1.84715 -12.4735 -0.614927
lradius 87.5878
lwrist -12.6191
lhand -52.075 -19.6944
lfingers 7.12502
lthumb -24.5794 8.74766
rfemur -199.853 191.157 201.64
rtibia 47.0051
rfoot -27.7261 -383.784
rtoes 20.8356
lfemur -29.7273 15.2085 -15.6629
ltibia 26.6752
lfoot -28.7082 21.0454
ltoes 0.287656
1988
root -6.65163 15.0375 -1.45033 -174.899 -22.3637 -182.601
lowerback 5.46755 4.75031 -1.09632
upperback -9.00775 5.93176 0.768561
thorax -13.0508 2.78206 0.501394
lowerneck -11.8187 13.3587 11.1675
upperneck -1.25821 15.5267 4.00966
head 2.12287 7.58693 0.373026
rclavicle -1.94809e-014 5.56597e-015
rhumerus -18.7319 14.5816 -10.0673
rradius 27.9625
rwrist -4.56865
rhand -18.8088 18.1961
rfingers 7.12502
rthumb 7.48975 -11.6513
lclavicle -1.94809e-014 5.56597e-015
lhumerus -2.0547 -13.0176 0.200763
lradius 83.6808
lwrist -13.1139
lhand -51.5568 -19.2974
lfingers 7.12502
lthumb -24.0826 9.21139
rfemur -199.641 191.088 201.171
rtibia 46.9433
rfoot -27.7391 -383.25
rtoes 19.8763
lfemur -30.7433 17.3484 -16.5978
ltibia 28.2971
lfoot -26.6614 20.1877
ltoes -4.97208
1989
root -6.69682 15.0203 -1.44043 -174.924 -22.2891 -182.632
lowerback 5.55402 4.68258 -0.840838
upperback -8.91474 5.86436 0.602372
thorax -12.9419 2.72095 0.189418
lowerneck -11.9209 13.1172 10.9975
upperneck -0.612405 15.1823 4.42636
head 2.30544 7.46885 0.534538
rclavicle -8.15017e-015 -2.46493e-014
rhumerus -18.4153 14.8029 -10.5733
rradius 27.871
rwrist -4.64916
rhand -18.294 17.8705
rfingers 7.12502
rthumb 7.98654 -11.9586
lclavicle -8.15017e-015 -2.46493e-014
lhumerus -2.13893 -13.4431 0.920008
lradius 79.6857
lwrist -13.3368
lhand -50.8028 -18.8859
lfingers 7.12502
lthumb -23.3595 9.71663
rfemur -199.503 191.344 200.791
rtibia 46.9703
rfoot -27.8046 -382.597
rtoes 18.8686
lfemur -31.852 18.9937 -17.2705
ltibia 30.1813
lfoot -25.1278 19.1118
ltoes -9.3165
1990
root -6.74495 15.0015 -1.43119 -174.995 -22.2116 -182.514
lowerback 5.6034 4.62265 -0.471071
upperback -8.82705 5.82585 0.501979
thorax -12.8135 2.66673 -0.115486
lowerneck -12.0562 12.8562 10.8161
upperneck 0.0800593 14.8065 4.79764
head 2.5163 7.33813 0.687398
rclavicle -3.24019e-014 -2.62396e-014
rhumerus -18.0611 15.0583 -10.9949
rradius 27.8435
rwrist -4.86542
rhand -17.684 17.451
rfingers 7.12502
rthumb 8.57532 -12.3549
lclavicle -3.24019e-014 -2.62396e-014
lhumerus -2.07601 -13.7709 1.53681
lradius 75.6386
lwrist -13.3369
lhand -49.725 -18.4114
lfingers 7.12502
lthumb -22.3251 10.3188
rfemur -199.44 191.895 200.553
rtibia 47.0552
rfoot -27.855 -381.907
rtoes 17.8331
lfemur -32.9849 20.1564 -17.6236
ltibia 32.2696
lfoot -24.0136 17.8055
ltoes -12.7824
1991
root -6.79594 14.9832 -1.4225 -175.123 -22.1136 -182.241
lowerback 5.62166 4.56955 0.0190146
upperback -8.7398 5.8164 0.473989
thorax -12.6635 2.6198 -0.409979
lowerneck -12.2023 12.5818 10.5834
upperneck 0.792233 14.416 5.16219
head 2.73597 7.20177 0.847537
rclavicle -2.79292e-014 -6.75868e-015
rhumerus -17.6473 15.3199 -11.3332
rradius 27.8893
rwrist -5.25399
rhand -16.9643 16.9081
rfingers 7.12502
rthumb 9.26983 -12.8681
lclavicle -2.79292e-014 -6.75868e-015
lhumerus -1.90033 -14.0174 2.05157
lradius 71.5753
lwrist -13.1594
lhand -48.1978 -17.8501
lfingers 7.12502
lthumb -20.8585 11.0486
rfemur -199.426 192.656 200.472
rtibia 47.1668
rfoot -27.8791 -381.208
rtoes 16.8005
lfemur -34.0718 20.866 -17.631
ltibia 34.4944
lfoot -23.2013 16.2679
ltoes -15.5898
1992
root -6.84935 14.966 -1.41428 -175.314 -21.9741 -181.821
lowerback 5.63228 4.51584 0.594789
upperback -8.65529 5.82184 0.523942
thorax -12.5135 2.57667 -0.66903
lowerneck -12.3334 12.3092 10.35
upperneck 1.51901 14.0289 5.49284
head 2.96502 7.06692 0.998857
rclavicle -4.96962e-015 3.26007e-014
rhumerus -17.1347 15.5779 -11.611
rradius 28.0118
rwrist -5.85126
rhand -16.1742 16.1636
rfingers 7.12502
rthumb 10.0321 -13.5773
lclavicle -4.96962e-015 3.26007e-014
lhumerus -1.66299 -14.2078 2.45324
lradius 67.5176
lwrist -12.8832
lhand -46.2685 -17.2181
lfingers 7.12502
lthumb -19.0039 11.8735
rfemur -199.427 193.52 200.538
rtibia 47.2775
rfoot -27.8611 -380.53
rtoes 15.7689
lfemur -35.0553 21.2065 -17.302
ltibia 36.7938
lfoot -22.6145 14.4482
ltoes -17.8741
